# xmcd
#
# Track frame offsets:
#	150
#	19229
#	35502
#	59028
#	79465
#	97697
#	119629
#	135631
#	151461
#	169821
#	182802
#	194836
#
# Disc length: 3001 seconds
# Revision: 1
# Processed by: cddbd v1.5.2PL0 Copyright (c) Steve Scherf et al.
# Submitted via: dBpowerAMP V12.0
#
DISCID=ae0bb70c
DTITLE=Rick Estrin and The Nightcats - One Wrong Turn
DYEAR=2012
DGENRE=Blues
TTITLE0=D.o.g.
TTITLE1=Lucky You
TTITLE2=Callin' All Fools
TTITLE3=(I Met Her on The) Blues Cruise
TTITLE4=Movin' Slow
TTITLE5=One Wrong Turn
TTITLE6=Desperation Perspiration
TTITLE7=Zonin'
TTITLE8=Broke And Lonesome
TTITLE9=You Ain't The Boss of me
TTITLE10=Old News
TTITLE11=The Legend of Taco Cobbler
EXTD=
EXTT0=
EXTT1=
EXTT2=
EXTT3=
EXTT4=
EXTT5=
EXTT6=
EXTT7=
EXTT8=
EXTT9=
EXTT10=
EXTT11=
PLAYORDER=
